/vscmnt/brussel_pixiu_data/_data_brussel/112/vsc11236/PredSimResults/SUBJ04opt3D/weighted/expIG/worker_01.mot
version=1
nRows=9
nColumns=50
inDegrees=yes
endheader
                time	         pelvis_tilt	         pelvis_list	     pelvis_rotation	           pelvis_tx	           pelvis_ty	           pelvis_tz	       hip_flexion_r	     hip_adduction_r	      hip_rotation_r	        knee_angle_r	       ankle_angle_r	         mtp_angle_r	       hip_flexion_l	     hip_adduction_l	      hip_rotation_l	        knee_angle_l	       ankle_angle_l	         mtp_angle_l	    lumbar_extension	      lumbar_bending	     lumbar_rotation	 ercspn_r/activation	 intobl_r/activation	 extobl_r/activation	    abd_r/activation	    add_r/activation	hamstrings_r/activation	bifemsh_r/activation	glut_max_r/activation	iliopsoas_r/activation	rect_fem_r/activation	  vasti_r/activation	gastroc_r/activation	 soleus_r/activation	tib_ant_r/activation	 ercspn_l/activation	 intobl_l/activation	 extobl_l/activation	    abd_l/activation	    add_l/activation	hamstrings_l/activation	bifemsh_l/activation	glut_max_l/activation	iliopsoas_l/activation	rect_fem_l/activation	  vasti_l/activation	gastroc_l/activation	 soleus_l/activation	tib_ant_l/activation	
          1.33669559	         -1.70871849	          0.24022419	          8.88926851	          1.20302603	          0.88347025	         -0.01113810	         28.66772130	         -3.20610198	        -10.84391099	        -11.24900652	          3.98741661	          0.23128562	        -12.39040518	         -0.61689000	         -7.88209983	         -7.63243698	         13.27233292	         19.73742325	        -13.83609888	         -3.70202508	         -7.74194709	          0.04252921	          0.22878060	          0.02201181	          0.00999999	          0.27228243	          0.06662297	          0.00999999	          0.01597650	          0.17512664	          0.03899279	          0.04648178	          0.00999999	          0.00999999	          0.33135664	          0.01794794	          0.00999999	          0.00999999	          0.06693247	          0.00999999	          0.02894757	          0.21007281	          0.01825058	          0.01982076	          0.00999999	          0.00999999	          0.24808050	          0.25038155	          0.00999999	
          1.35006255	         -1.81482730	          0.23146684	          8.67231105	          1.21838197	          0.88120820	         -0.01074381	         28.53038016	         -3.05366324	        -11.06299497	        -12.45202142	          3.79660014	          0.22484017	        -13.06201066	         -0.73556304	         -8.55701624	         -8.14175562	         13.01409889	         21.16063963	        -13.33347788	         -3.10456137	         -7.82118669	          0.03478068	          0.22681348	          0.01800141	          0.00999999	          0.27892192	          0.06886076	          0.01606393	          0.02488687	          0.14321976	          0.03188857	          0.03801312	          0.01798538	          0.01934361	          0.33344358	          0.02523250	          0.00999999	          0.00999999	          0.05473784	          0.00999999	          0.02367353	          0.17179899	          0.01492545	          0.01620956	          0.00999999	          0.00999999	          0.22923811	          0.25003147	          0.00999999	
          1.36342950	         -1.90551012	          0.16329377	          8.41258814	          1.23413324	          0.87909470	         -0.01029614	         28.28317953	         -2.88577711	        -11.17203371	        -13.60973458	          3.47579273	          0.22247615	        -13.68344349	         -0.92460450	         -9.26302795	         -8.81166251	         12.68168028	         22.62095708	        -12.79496912	         -2.41597737	         -7.87459167	          0.02844388	          0.20997263	          0.01472168	          0.02568424	          0.22810426	          0.07012866	          0.01313721	          0.02961777	          0.11712611	          0.02607869	          0.06030573	          0.01470857	          0.01581934	          0.36204773	          0.02676569	          0.00999999	          0.00999999	          0.04476498	          0.00999999	          0.01936038	          0.14049839	          0.01220613	          0.01325629	          0.00999999	          0.00999999	          0.18747250	          0.23947440	          0.00999999	
          1.37679646	         -1.98166137	          0.05017756	          8.09878270	          1.25008262	          0.87731637	         -0.00973746	         27.99562140	         -2.68626043	        -11.37654171	        -14.68160887	          3.03704319	          0.20382587	        -14.18748532	         -1.17702134	        -10.00744268	         -9.73930654	         12.23768478	         24.11593828	        -12.25098105	         -1.65953158	         -7.89270332	          0.02355515	          0.17171706	          0.01203949	          0.03899499	          0.20794667	          0.07231279	          0.01074370	          0.02422161	          0.09578653	          0.02132733	          0.13231726	          0.01202877	          0.01293716	          0.39006465	          0.03425808	          0.00999999	          0.00999999	          0.03660911	          0.00999999	          0.01583306	          0.11490055	          0.00999999	          0.01084108	          0.00999999	          0.00999999	          0.15331629	          0.22574291	          0.00999999	
          1.39016341	         -2.04369354	         -0.10599016	          7.74096844	          1.26610824	          0.87606056	         -0.00905580	         27.64630724	         -2.45147729	        -11.69571415	        -15.68254317	          2.73282127	          0.18116254	        -14.51083414	         -1.50612752	        -10.77950479	        -11.01405626	         11.62833226	         25.66331970	        -11.71883127	         -0.84406150	         -7.87569040	          0.03122016	          0.14043139	          0.00999999	          0.07168461	          0.18149005	          0.07115033	          0.01000000	          0.01980860	          0.07833488	          0.01744164	          0.19124048	          0.00999999	          0.01058010	          0.40026909	          0.05344681	          0.00999999	          0.00999999	          0.02993918	          0.00999999	          0.02077660	          0.09396646	          0.00999999	          0.00999999	          0.00999999	          0.00999999	          0.12538312	          0.19481437	          0.00999999	
          1.40353037	         -2.09267668	         -0.30119522	          7.35293719	          1.28206370	          0.87552401	         -0.00824450	         27.21110477	         -2.16752191	        -12.06108561	        -16.57709468	          2.65485723	          0.15867325	        -14.57961489	         -1.92771632	        -11.57312537	        -12.73938159	         10.80317240	         27.26097194	        -11.21544970	          0.01825382	         -7.82629153	          0.03367193	          0.11484575	          0.00999999	          0.09614660	          0.16127451	          0.07084119	          0.00999999	          0.03277793	          0.06406281	          0.01426389	          0.22082653	          0.00999999	          0.00999999	          0.39664946	          0.08614752	          0.00999999	          0.00999999	          0.02448447	          0.00999999	          0.04578453	          0.07684641	          0.01522443	          0.00999999	          0.00999999	          0.01280905	          0.10253917	          0.15932053	          0.00999999	
          1.41689733	         -2.12923464	         -0.52639070	          6.94912497	          1.29781863	          0.87581219	         -0.00730449	         26.69149724	         -1.82722217	        -12.38808297	        -17.35309177	          2.79024689	          0.14667557	        -14.34212068	         -2.45209629	        -12.38700485	        -14.97900525	          9.71395888	         28.88187951	        -10.75410823	          0.90992609	         -7.75085589	          0.03346239	          0.09392164	          0.00999999	          0.11094870	          0.14886258	          0.07322610	          0.01000001	          0.02680601	          0.05239100	          0.01166511	          0.23138854	          0.00999999	          0.00999999	          0.37367071	          0.09879234	          0.00999999	          0.00999999	          0.02002356	          0.02163380	          0.07803405	          0.06284552	          0.01886042	          0.00999999	          0.00999999	          0.01828299	          0.08385724	          0.13029342	          0.00999999	
          1.43026428	         -2.15364365	         -0.75889709	          6.54090137	          1.31330264	          0.87689434	         -0.00625087	         26.07970589	         -1.44015199	        -12.61143153	        -17.98188387	          3.10120039	          0.16460974	        -13.78332716	         -3.07083809	        -13.20989604	        -17.73987084	          8.32729291	         30.45291828	        -10.34234599	          1.80116907	         -7.65419804	          0.03255682	          0.07680977	          0.00999999	          0.11614299	          0.16011565	          0.07741335	          0.00999999	          0.03292315	          0.04284572	          0.00999999	          0.24191279	          0.00999999	          0.00999999	          0.33964823	          0.09042117	          0.00999999	          0.00999999	          0.01637541	          0.12647035	          0.09056296	          0.05139550	          0.01542418	          0.00999999	          0.00999999	          0.01495196	          0.06857903	          0.10655485	          0.00999999	
          1.44363124	         -2.16644195	         -0.96416239	          6.13401390	          1.32845212	          0.87867780	         -0.00511034	         25.34706058	         -1.03279457	        -12.70553186	        -18.38761377	          3.47017600	          0.24859074	        -12.88496056	         -3.76304471	        -14.03553626	        -21.03702227	          6.63283451	         31.83550609	         -9.98896847	          2.65225654	         -7.53534676	          0.02662519	          0.06281555	          0.00999999	          0.11817824	          0.15862616	          0.08346582	          0.00999999	          0.02692478	          0.03503952	          0.00999999	          0.23483893	          0.00999999	          0.00999999	          0.30893757	          0.08179946	          0.01828299	          0.00999999	          0.01339192	          0.15176803	          0.10397281	          0.04203159	          0.01261400	          0.00999999	          0.00999999	          0.01222781	          0.05608440	          0.08714129	          0.00999999	
